<mxfile host="app.diagrams.net" modified="2024-02-01T17:05:22.104Z" agent="Mozilla/5.0 (Windows NT 10.0; Win64; x64) AppleWebKit/537.36 (KHTML, like Gecko) Chrome/120.0.0.0 Safari/537.36" etag="eQN6N_yY-AfnsRjLX3Sl" version="23.1.0" type="github">
  <diagram name="Page-1" id="y4Yh2Uczv8pGgyZVEvx9">
    <mxGraphModel dx="1464" dy="1744" grid="1" gridSize="10" guides="1" tooltips="1" connect="1" arrows="1" fold="1" page="1" pageScale="1" pageWidth="827" pageHeight="1169" math="0" shadow="0">
      <root>
        <mxCell id="0" />
        <mxCell id="1" parent="0" />
        <mxCell id="Ju9vL2BigYOrrsqfJwTj-29" value="" style="rounded=1;whiteSpace=wrap;html=1;fillColor=#FFFF99;" vertex="1" parent="1">
          <mxGeometry x="750" y="-295" width="730" height="320" as="geometry" />
        </mxCell>
        <mxCell id="Ju9vL2BigYOrrsqfJwTj-27" value="" style="rounded=1;whiteSpace=wrap;html=1;fillColor=#D4E1F5;" vertex="1" parent="1">
          <mxGeometry x="10" y="-290" width="730" height="320" as="geometry" />
        </mxCell>
        <mxCell id="Ju9vL2BigYOrrsqfJwTj-19" style="edgeStyle=orthogonalEdgeStyle;rounded=0;orthogonalLoop=1;jettySize=auto;html=1;entryX=0;entryY=0.5;entryDx=0;entryDy=0;" edge="1" parent="1" source="Ju9vL2BigYOrrsqfJwTj-1" target="Ju9vL2BigYOrrsqfJwTj-18">
          <mxGeometry relative="1" as="geometry" />
        </mxCell>
        <mxCell id="Ju9vL2BigYOrrsqfJwTj-1" value="" style="outlineConnect=0;dashed=0;verticalLabelPosition=bottom;verticalAlign=top;align=center;html=1;shape=mxgraph.aws3.rds;fillColor=#2E73B8;gradientColor=none;" vertex="1" parent="1">
          <mxGeometry x="700" y="-158" width="72" height="81" as="geometry" />
        </mxCell>
        <mxCell id="Ju9vL2BigYOrrsqfJwTj-2" style="edgeStyle=orthogonalEdgeStyle;rounded=0;orthogonalLoop=1;jettySize=auto;html=1;fontFamily=Helvetica;fontSize=12;fontColor=default;" edge="1" parent="1" source="Ju9vL2BigYOrrsqfJwTj-3" target="Ju9vL2BigYOrrsqfJwTj-6">
          <mxGeometry relative="1" as="geometry" />
        </mxCell>
        <mxCell id="Ju9vL2BigYOrrsqfJwTj-3" value="" style="sketch=0;outlineConnect=0;fontColor=#232F3E;gradientColor=none;fillColor=#2E27AD;strokeColor=none;dashed=0;verticalLabelPosition=bottom;verticalAlign=top;align=center;html=1;fontSize=12;fontStyle=0;aspect=fixed;pointerEvents=1;shape=mxgraph.aws4.rds_oracle_instance;" vertex="1" parent="1">
          <mxGeometry x="50" y="-158" width="78" height="78" as="geometry" />
        </mxCell>
        <mxCell id="Ju9vL2BigYOrrsqfJwTj-4" value="&lt;font style=&quot;font-size: 18px;&quot;&gt;&lt;b&gt;Global Database&lt;/b&gt;&lt;/font&gt;" style="text;html=1;align=center;verticalAlign=middle;resizable=0;points=[];autosize=1;strokeColor=none;fillColor=none;" vertex="1" parent="1">
          <mxGeometry x="9" y="-80" width="160" height="40" as="geometry" />
        </mxCell>
        <mxCell id="Ju9vL2BigYOrrsqfJwTj-5" style="edgeStyle=orthogonalEdgeStyle;rounded=0;orthogonalLoop=1;jettySize=auto;html=1;fontFamily=Helvetica;fontSize=12;fontColor=default;" edge="1" parent="1" source="Ju9vL2BigYOrrsqfJwTj-6" target="Ju9vL2BigYOrrsqfJwTj-13">
          <mxGeometry relative="1" as="geometry" />
        </mxCell>
        <mxCell id="Ju9vL2BigYOrrsqfJwTj-6" value="" style="shape=image;verticalLabelPosition=bottom;labelBackgroundColor=default;verticalAlign=top;aspect=fixed;imageAspect=0;image=data:image/png,iVBORw0KGgoAAAANSUhEUgAAAT4AAACfCAMAAABX0UX9AAABIFBMVEX///8AAAD6+vpeXl4FBQU9PT3t7e1mZmaLi4t0dHRTU1NFRUXGxsapqam9vb2Hh4fe3t5Cq73n5+cAM5IuLi7T09OlpaWSkpKXrc97e3sSQJj19fUTQ5gcHBwAN5MVFRUlJSWenp7h6fNLS0tDsL+jzNsASpoeW6EiZaQla6c2NjYDO5ZsbGxiYmKHwtDs9/mmw9kvga40jLKOpMuetNO2yN/m7fVgfbQATJpQfrXP2ulHbqwcVZ8cYKSeuNR0lMCHqssAGoxWi7k0dK11iLuuuth5pMc6e65EYqjO1eeDlcMAKpG6xd05XqTV6e9+t8tOpr8elbK92+Sg09x/x9K/4eY9sb9ju8ja7/IdfKtXlruNt89kpMGw0eA3krQQg6xYGktXAAAGp0lEQVR4nO2c+1/aOhiHSxG2oZuKlykUVHSIosPjhW31tsmZbsczRXRTjrv8///FaZlg3rRN0zYF/ez7/DabpMnT5M2lZZoGAAAAAAAAAAAAAAAAAAAAAAAAAAAAAAAAAAAAAAAAAAAAAAAAGBzm1tbWzG+2d3bqg67OoyO//aZcNcrl8luLcvndtqkPukqPC700s/u2vLe3t2yzt//uAAIDYm7vl21/+zbLlYP8oCv0QPGMbnnzcHfZ9lex2D/53M9KPRo+vxFcrO8cWv5sfSuVyvt+VekRMfPhoziBfnBY2a+s2BxhGuaYKeb8nZQOGpWOwCMEQMLMh4m/pRKaB0crKw30P8LHYrX4r2Tamnl8YvnzTZdJdsm8kCp46j7H4t36KJtkyTyXrGKXkQzJPnX352RA1mens6IFmzlRrRoBVnT6znHj2C9R4h65Zo8wObqVWUgQpoQF8KRp5lmXmkkjeHT1T8VcUW7s9shvlHxSKNGnJUkjUtkAVdTXSN7V3oWhMP4Si17Pbus0l5tQvppToy89SdrwLEAFFkjOufvWh9OXSLjHINOo5qq7yudSNfq0KdoE+fA34pkxrL7EtNt9/pnI5Ypb0tWSRZE+7SVpwdyY5O112m3XmEuh9SVGnPepW0PXOPWLZMFRpU+jISwlOcVxudjBFV7fUNpxny2r8+W+yNUpCMr0ZWk/eipV2HPabhL2w+tLjPL3yX+qGkZxRqpOgVCmj49iLiPIwRjNQisQQV+Bjx2fjZxhvFU/dhXq48LfpH/4y2dIjjV6NYK+xAJ3p48ThpETHbaERaE+na7+Mr5FzZL0KS5iRdGX4u60a3U+6Q1bEBTq0/JzpA0vfUp6QZvM91ZGX+qZDGxf5soqG4ZRjeMARaU+Xoh485aeJ4n58cbqk5uH2Jpx+55Ta+wG3LDJoVSftkCMzImet04D36wjAaPPMZO6wj482pXrVugz4hi7ivVx4c/p5J5pknLVuVRTqK9k6ftSkyokIIH1sdsz59o4S0ekd5HcLs9lnCvVVzYOpcoICtsDMjIMC/Vxq785r/CXHibpHIFPU6uvWK7G8+osEQW3ndlTkmLY47ZPSKp1t4KU6jMiHLacCa4p18ed/bmfXdHN2qRr09Tqi3DY8lpwTb2+MRr+3I7fxgokifv+Tu3gNaWKcKN1LrioXh+/+XXOqdwplcf8wuibzaf9ybNdmhZVKu5KunLhVZ/1ceFv3TE06eZ43aNmjL5CSgbmoRRoUaVTn7fjAmrNfuvjVsT8noHuTVxWfL+Jsufl9oslI/xhy9lFf2OfRZrGNhr+uKWh584ugj7+tKcU4bDlvP/6uA5GZ1Y6M3ufK0TQx7/tKG1LmXKj1hyAPi78JZkrNPCteZYQQZ9jsVQPv+hrXTQHoI87Cb3vDlPEyrzgjXBofUmVH4eeN2X1DT+RgfUiqGeWnv11I1x+yPXPboTWVwj2lYOQWlNa37Sm+0PCmugx0/C3eDe/0gNm4YFqhDdtQb5yEHN5MT4uqU/BgRWLW5Cjp1SuW90eEaaOjLLhe94clD4tRZpkr17om7WCOKBHWffJfSzmz9m4xaUgQYz66M62kNX0xSBtjKIvKS5amktb31dBghj18dsLfZT82+2Mj4XRt/hUBvYQTKop/tj2xm8ECeLUp1FfGTIZiwOfpvZVUUhubHtLohSx6uM2vyzzXlvdHgoPrMLy2tZ3JUoRqz5tjK7+GPy/4Ri8vtq13flEoS9mffyb3x5+gU97CPq+2vauhW/oYtbHrZO7+H/A8RD0Xdn6hGM3dn15ulj5zbxM6wauT7fkLX0Tvx6OW5+Wdgl/Mh+vDV7fV8vekmjNrPVBn0v4kwh82gPQd2X1PZ/O1wd92gg9e5b9blyxPn0j4M/Ea1bf+yacdrW+6NPG2Pg3KbsfZfIo6X3m/slBkNeVl5Y98bxhkRrusir5o6zVXo5J2cepP+++3xh66btc7pLp3SclN9pHhu/b4rbr2FlZaRxtSP/M73rp27VvInKWJ0XgDJ1MU6NPkuuzLwKcmquv2Ual0WicHP+QKuzGshfLR1mPl43GiUW7fWz6i7mEPQe2v3b7r3b7v1vRhz8W+jXsOTGPLHsd2j83RAZvfGeNP5La7Z2/zc1fm99/ePYw/FcuHpjf2x17HX6etzBGA3J2u/nrl+2uQ/P8DAaDUW/d/rQNdvxdXDRf+0wkwMlZq/WqR2vQtQEAAAAAAAAAAAAAAAAAAAAAAAAAAAAAAAAAAAAAAAAAAAAAAAD8WfwP/FirGDD/sOUAAAAASUVORK5CYII=;" vertex="1" parent="1">
          <mxGeometry x="270" y="-158" width="160" height="80" as="geometry" />
        </mxCell>
        <mxCell id="Ju9vL2BigYOrrsqfJwTj-7" value="&lt;font style=&quot;font-size: 18px;&quot;&gt;&lt;b&gt;HVR Suzhou Hub&lt;/b&gt;&lt;/font&gt;" style="text;html=1;align=center;verticalAlign=middle;resizable=0;points=[];autosize=1;strokeColor=none;fillColor=none;" vertex="1" parent="1">
          <mxGeometry x="267" y="-80" width="170" height="40" as="geometry" />
        </mxCell>
        <mxCell id="Ju9vL2BigYOrrsqfJwTj-9" value="&lt;font style=&quot;font-size: 18px;&quot;&gt;&lt;b&gt;ODS Pune Database&lt;/b&gt;&lt;/font&gt;" style="text;html=1;align=center;verticalAlign=middle;resizable=0;points=[];autosize=1;strokeColor=none;fillColor=none;" vertex="1" parent="1">
          <mxGeometry x="636" y="-79" width="200" height="40" as="geometry" />
        </mxCell>
        <mxCell id="Ju9vL2BigYOrrsqfJwTj-11" value="10.227.156.96&amp;nbsp;" style="text;html=1;align=center;verticalAlign=middle;resizable=0;points=[];autosize=1;strokeColor=none;fillColor=none;fontSize=12;fontFamily=Helvetica;fontColor=default;fontStyle=1" vertex="1" parent="1">
          <mxGeometry x="686" y="-192" width="100" height="30" as="geometry" />
        </mxCell>
        <mxCell id="Ju9vL2BigYOrrsqfJwTj-12" style="edgeStyle=orthogonalEdgeStyle;rounded=0;orthogonalLoop=1;jettySize=auto;html=1;fontFamily=Helvetica;fontSize=12;fontColor=default;" edge="1" parent="1" source="Ju9vL2BigYOrrsqfJwTj-13" target="Ju9vL2BigYOrrsqfJwTj-1">
          <mxGeometry relative="1" as="geometry" />
        </mxCell>
        <mxCell id="Ju9vL2BigYOrrsqfJwTj-13" value="" style="outlineConnect=0;dashed=0;verticalLabelPosition=bottom;verticalAlign=top;align=center;html=1;shape=mxgraph.aws3.ec2;fillColor=#F58534;gradientColor=none;fontFamily=Helvetica;fontSize=12;fontColor=default;" vertex="1" parent="1">
          <mxGeometry x="510" y="-164.5" width="76.5" height="93" as="geometry" />
        </mxCell>
        <mxCell id="Ju9vL2BigYOrrsqfJwTj-14" value="10.227.153.227&amp;nbsp;" style="text;html=1;align=center;verticalAlign=middle;resizable=0;points=[];autosize=1;strokeColor=none;fillColor=none;fontSize=12;fontFamily=Helvetica;fontColor=default;fontStyle=1" vertex="1" parent="1">
          <mxGeometry x="493.25" y="-190" width="110" height="30" as="geometry" />
        </mxCell>
        <mxCell id="Ju9vL2BigYOrrsqfJwTj-15" value="&lt;b&gt;Production&lt;/b&gt;" style="text;html=1;align=center;verticalAlign=middle;resizable=0;points=[];autosize=1;strokeColor=none;fillColor=none;fontSize=12;fontFamily=Helvetica;fontColor=default;" vertex="1" parent="1">
          <mxGeometry x="144" y="-150" width="90" height="30" as="geometry" />
        </mxCell>
        <mxCell id="Ju9vL2BigYOrrsqfJwTj-16" value="&lt;b&gt;Integration&lt;/b&gt;" style="text;html=1;align=center;verticalAlign=middle;resizable=0;points=[];autosize=1;strokeColor=none;fillColor=none;fontSize=12;fontFamily=Helvetica;fontColor=default;" vertex="1" parent="1">
          <mxGeometry x="595" y="-150" width="90" height="30" as="geometry" />
        </mxCell>
        <mxCell id="Ju9vL2BigYOrrsqfJwTj-17" value="&lt;b style=&quot;border-color: var(--border-color);&quot;&gt;EC2&lt;br&gt;HVR Agent Server&lt;/b&gt;" style="text;html=1;align=center;verticalAlign=middle;resizable=0;points=[];autosize=1;strokeColor=none;fillColor=none;fontSize=12;fontFamily=Helvetica;fontColor=default;" vertex="1" parent="1">
          <mxGeometry x="483.25" y="-71.5" width="130" height="40" as="geometry" />
        </mxCell>
        <mxCell id="Ju9vL2BigYOrrsqfJwTj-24" style="edgeStyle=orthogonalEdgeStyle;rounded=0;orthogonalLoop=1;jettySize=auto;html=1;" edge="1" parent="1" source="Ju9vL2BigYOrrsqfJwTj-18">
          <mxGeometry relative="1" as="geometry">
            <mxPoint x="1300" y="-118" as="targetPoint" />
          </mxGeometry>
        </mxCell>
        <mxCell id="Ju9vL2BigYOrrsqfJwTj-18" value="" style="shape=image;verticalLabelPosition=bottom;labelBackgroundColor=default;verticalAlign=top;aspect=fixed;imageAspect=0;image=data:image/png,iVBORw0KGgoAAAANSUhEUgAAAT4AAACfCAMAAABX0UX9AAABIFBMVEX///8AAAD6+vpeXl4FBQU9PT3t7e1mZmaLi4t0dHRTU1NFRUXGxsapqam9vb2Hh4fe3t5Cq73n5+cAM5IuLi7T09OlpaWSkpKXrc97e3sSQJj19fUTQ5gcHBwAN5MVFRUlJSWenp7h6fNLS0tDsL+jzNsASpoeW6EiZaQla6c2NjYDO5ZsbGxiYmKHwtDs9/mmw9kvga40jLKOpMuetNO2yN/m7fVgfbQATJpQfrXP2ulHbqwcVZ8cYKSeuNR0lMCHqssAGoxWi7k0dK11iLuuuth5pMc6e65EYqjO1eeDlcMAKpG6xd05XqTV6e9+t8tOpr8elbK92+Sg09x/x9K/4eY9sb9ju8ja7/IdfKtXlruNt89kpMGw0eA3krQQg6xYGktXAAAGp0lEQVR4nO2c+1/aOhiHSxG2oZuKlykUVHSIosPjhW31tsmZbsczRXRTjrv8///FaZlg3rRN0zYF/ez7/DabpMnT5M2lZZoGAAAAAAAAAAAAAAAAAAAAAAAAAAAAAAAAAAAAAAAAAAAAAAAAGBzm1tbWzG+2d3bqg67OoyO//aZcNcrl8luLcvndtqkPukqPC700s/u2vLe3t2yzt//uAAIDYm7vl21/+zbLlYP8oCv0QPGMbnnzcHfZ9lex2D/53M9KPRo+vxFcrO8cWv5sfSuVyvt+VekRMfPhoziBfnBY2a+s2BxhGuaYKeb8nZQOGpWOwCMEQMLMh4m/pRKaB0crKw30P8LHYrX4r2Tamnl8YvnzTZdJdsm8kCp46j7H4t36KJtkyTyXrGKXkQzJPnX352RA1mens6IFmzlRrRoBVnT6znHj2C9R4h65Zo8wObqVWUgQpoQF8KRp5lmXmkkjeHT1T8VcUW7s9shvlHxSKNGnJUkjUtkAVdTXSN7V3oWhMP4Si17Pbus0l5tQvppToy89SdrwLEAFFkjOufvWh9OXSLjHINOo5qq7yudSNfq0KdoE+fA34pkxrL7EtNt9/pnI5Ypb0tWSRZE+7SVpwdyY5O112m3XmEuh9SVGnPepW0PXOPWLZMFRpU+jISwlOcVxudjBFV7fUNpxny2r8+W+yNUpCMr0ZWk/eipV2HPabhL2w+tLjPL3yX+qGkZxRqpOgVCmj49iLiPIwRjNQisQQV+Bjx2fjZxhvFU/dhXq48LfpH/4y2dIjjV6NYK+xAJ3p48ThpETHbaERaE+na7+Mr5FzZL0KS5iRdGX4u60a3U+6Q1bEBTq0/JzpA0vfUp6QZvM91ZGX+qZDGxf5soqG4ZRjeMARaU+Xoh485aeJ4n58cbqk5uH2Jpx+55Ta+wG3LDJoVSftkCMzImet04D36wjAaPPMZO6wj482pXrVugz4hi7ivVx4c/p5J5pknLVuVRTqK9k6ftSkyokIIH1sdsz59o4S0ekd5HcLs9lnCvVVzYOpcoICtsDMjIMC/Vxq785r/CXHibpHIFPU6uvWK7G8+osEQW3ndlTkmLY47ZPSKp1t4KU6jMiHLacCa4p18ed/bmfXdHN2qRr09Tqi3DY8lpwTb2+MRr+3I7fxgokifv+Tu3gNaWKcKN1LrioXh+/+XXOqdwplcf8wuibzaf9ybNdmhZVKu5KunLhVZ/1ceFv3TE06eZ43aNmjL5CSgbmoRRoUaVTn7fjAmrNfuvjVsT8noHuTVxWfL+Jsufl9oslI/xhy9lFf2OfRZrGNhr+uKWh584ugj7+tKcU4bDlvP/6uA5GZ1Y6M3ufK0TQx7/tKG1LmXKj1hyAPi78JZkrNPCteZYQQZ9jsVQPv+hrXTQHoI87Cb3vDlPEyrzgjXBofUmVH4eeN2X1DT+RgfUiqGeWnv11I1x+yPXPboTWVwj2lYOQWlNa37Sm+0PCmugx0/C3eDe/0gNm4YFqhDdtQb5yEHN5MT4uqU/BgRWLW5Cjp1SuW90eEaaOjLLhe94clD4tRZpkr17om7WCOKBHWffJfSzmz9m4xaUgQYz66M62kNX0xSBtjKIvKS5amktb31dBghj18dsLfZT82+2Mj4XRt/hUBvYQTKop/tj2xm8ECeLUp1FfGTIZiwOfpvZVUUhubHtLohSx6uM2vyzzXlvdHgoPrMLy2tZ3JUoRqz5tjK7+GPy/4Ri8vtq13flEoS9mffyb3x5+gU97CPq+2vauhW/oYtbHrZO7+H/A8RD0Xdn6hGM3dn15ulj5zbxM6wauT7fkLX0Tvx6OW5+Wdgl/Mh+vDV7fV8vekmjNrPVBn0v4kwh82gPQd2X1PZ/O1wd92gg9e5b9blyxPn0j4M/Ea1bf+yacdrW+6NPG2Pg3KbsfZfIo6X3m/slBkNeVl5Y98bxhkRrusir5o6zVXo5J2cepP+++3xh66btc7pLp3SclN9pHhu/b4rbr2FlZaRxtSP/M73rp27VvInKWJ0XgDJ1MU6NPkuuzLwKcmquv2Ual0WicHP+QKuzGshfLR1mPl43GiUW7fWz6i7mEPQe2v3b7r3b7v1vRhz8W+jXsOTGPLHsd2j83RAZvfGeNP5La7Z2/zc1fm99/ePYw/FcuHpjf2x17HX6etzBGA3J2u/nrl+2uQ/P8DAaDUW/d/rQNdvxdXDRf+0wkwMlZq/WqR2vQtQEAAAAAAAAAAAAAAAAAAAAAAAAAAAAAAAAAAAAAAAAAAAAAAAD8WfwP/FirGDD/sOUAAAAASUVORK5CYII=;" vertex="1" parent="1">
          <mxGeometry x="960" y="-158" width="160" height="80" as="geometry" />
        </mxCell>
        <mxCell id="Ju9vL2BigYOrrsqfJwTj-20" value="&lt;font style=&quot;font-size: 18px;&quot;&gt;&lt;b&gt;HVR ADL Hub&lt;/b&gt;&lt;/font&gt;" style="text;html=1;align=center;verticalAlign=middle;resizable=0;points=[];autosize=1;strokeColor=none;fillColor=none;" vertex="1" parent="1">
          <mxGeometry x="970" y="-86" width="140" height="40" as="geometry" />
        </mxCell>
        <mxCell id="Ju9vL2BigYOrrsqfJwTj-21" value="HVR Agent For ADL" style="text;html=1;align=center;verticalAlign=middle;resizable=0;points=[];autosize=1;strokeColor=none;fillColor=none;fontStyle=1" vertex="1" parent="1">
          <mxGeometry x="705" y="-210" width="140" height="30" as="geometry" />
        </mxCell>
        <mxCell id="Ju9vL2BigYOrrsqfJwTj-22" value="HVR Agent For Suzhou HVR" style="text;html=1;align=center;verticalAlign=middle;resizable=0;points=[];autosize=1;strokeColor=none;fillColor=none;fontStyle=1" vertex="1" parent="1">
          <mxGeometry x="460" y="-210" width="180" height="30" as="geometry" />
        </mxCell>
        <mxCell id="Ju9vL2BigYOrrsqfJwTj-23" value="" style="outlineConnect=0;dashed=0;verticalLabelPosition=bottom;verticalAlign=top;align=center;html=1;shape=mxgraph.aws3.redshift;fillColor=#2E73B8;gradientColor=none;" vertex="1" parent="1">
          <mxGeometry x="1310" y="-155.5" width="67.5" height="75" as="geometry" />
        </mxCell>
        <mxCell id="Ju9vL2BigYOrrsqfJwTj-25" value="&lt;b&gt;Redshift Database&lt;/b&gt;" style="text;html=1;align=center;verticalAlign=middle;resizable=0;points=[];autosize=1;strokeColor=none;fillColor=none;" vertex="1" parent="1">
          <mxGeometry x="1278.75" y="-194.5" width="130" height="30" as="geometry" />
        </mxCell>
        <mxCell id="Ju9vL2BigYOrrsqfJwTj-26" value="Datalake" style="text;html=1;align=center;verticalAlign=middle;resizable=0;points=[];autosize=1;strokeColor=none;fillColor=none;fontStyle=1" vertex="1" parent="1">
          <mxGeometry x="1308.75" y="-74" width="70" height="30" as="geometry" />
        </mxCell>
        <mxCell id="Ju9vL2BigYOrrsqfJwTj-28" value="&lt;b&gt;&lt;font style=&quot;font-size: 18px;&quot;&gt;Suzhou Environment&lt;/font&gt;&lt;/b&gt;" style="text;html=1;strokeColor=none;fillColor=none;align=center;verticalAlign=middle;whiteSpace=wrap;rounded=0;" vertex="1" parent="1">
          <mxGeometry x="260" y="-270" width="236" height="30" as="geometry" />
        </mxCell>
        <mxCell id="Ju9vL2BigYOrrsqfJwTj-30" value="&lt;b&gt;&lt;font style=&quot;font-size: 18px;&quot;&gt;HVR ADL&amp;nbsp;&lt;/font&gt;&lt;/b&gt;&lt;span style=&quot;font-size: 18px;&quot;&gt;&lt;b&gt;Environment&lt;/b&gt;&lt;/span&gt;" style="text;html=1;strokeColor=none;fillColor=none;align=center;verticalAlign=middle;whiteSpace=wrap;rounded=0;" vertex="1" parent="1">
          <mxGeometry x="1005" y="-270" width="236" height="30" as="geometry" />
        </mxCell>
        <mxCell id="Ju9vL2BigYOrrsqfJwTj-31" value="&lt;b&gt;Capture Jobs&lt;/b&gt;" style="text;html=1;align=center;verticalAlign=middle;resizable=0;points=[];autosize=1;strokeColor=none;fillColor=none;fontSize=12;fontFamily=Helvetica;fontColor=default;" vertex="1" parent="1">
          <mxGeometry x="815" y="-145" width="100" height="30" as="geometry" />
        </mxCell>
      </root>
    </mxGraphModel>
  </diagram>
</mxfile>
